<?xml version="1.0" encoding="utf-8"?>
<!-- Generator: Adobe Illustrator 18.1.1, SVG Export Plug-In . SVG Version: 6.00 Build 0)  -->
<svg version="1.1" id="Interface__x26__Layout" xmlns="http://www.w3.org/2000/svg" xmlns:xlink="http://www.w3.org/1999/xlink"
	 x="0px" y="0px" viewBox="0 0 64 64" enable-background="new 0 0 64 64" xml:space="preserve">
<g id="interface_-_house_home">
	<g>
		<path fill-rule="evenodd" clip-rule="evenodd" fill="#FFFFFF" d="M63.4,32.5l-30-32C33,0.2,32.5,0,32,0c-0.5,0-1,0.2-1.4,0.6
			l-30,32c-0.8,0.8-0.8,2.1,0,2.9s2.1,0.8,2.9,0l8.6-9.2V62c0,1.1,0.9,2,2,2h36c1.1,0,2-0.9,2-2V26.3l8.5,9.1c0.8,0.8,2.1,0.8,2.9,0
			S64.2,33.3,63.4,32.5z M48,24v36H16V24c0-0.6-0.2-1.1-0.6-1.4L32,4.9l16.6,17.7C48.2,23,48,23.5,48,24z"/>
	</g>
</g>
</svg>
