<?xml version="1.0" encoding="utf-8"?>
<!-- Generator: Adobe Illustrator 18.1.1, SVG Export Plug-In . SVG Version: 6.00 Build 0)  -->
<svg version="1.1" id="Communcation" xmlns="http://www.w3.org/2000/svg" xmlns:xlink="http://www.w3.org/1999/xlink" x="0px"
	 y="0px" viewBox="0 0 64 52" enable-background="new 0 0 64 52" xml:space="preserve">
<g id="communication_-_email_envelope_1_">
	<g>
		<path fill-rule="evenodd" clip-rule="evenodd" fill="#FFFFFF" d="M64,2c0-0.5-0.2-1-0.6-1.4C63,0.1,62.3-0.1,61.8,0H2.2
			C1.7-0.1,1,0.1,0.6,0.6C0.2,1,0,1.5,0,2c0,0,0,0,0,0v48c0,1.1,0.9,2,2,2h60c1.1,0,2-0.9,2-2L64,2C64,2,64,2,64,2z M56.3,4L32,23.5
			L7.7,4H56.3z M58,48H6c-1.1,0-2-0.9-2-2V6.1l26.4,21.1c0.1,0.1,0.1,0.1,0.2,0.2C31,27.8,31.5,28,32,28c0.5,0,1-0.2,1.4-0.6
			c0.1-0.1,0.1-0.1,0.2-0.2L60,6.1V46C60,47.1,59.1,48,58,48z"/>
	</g>
</g>
</svg>
