<?xml version="1.0" encoding="utf-8"?>
<!-- Generator: Adobe Illustrator 18.1.1, SVG Export Plug-In . SVG Version: 6.00 Build 0)  -->
<svg version="1.1" id="Calque_1" xmlns="http://www.w3.org/2000/svg" xmlns:xlink="http://www.w3.org/1999/xlink" x="0px" y="0px"
	 viewBox="37.9 201.8 723 241.8" enable-background="new 37.9 201.8 723 241.8" xml:space="preserve">
<g>
	<path fill="#E30613" d="M59.1,389.7h22.7l46.6-105h0.4l17.1,105h23.5l59.5-137.9h-25l-40.9,99.3h-0.4l-16.3-99.3H122l-45.1,99.3
		h-0.4l-12.1-99.3H37.9L59.1,389.7L59.1,389.7z M197.8,389.7h19.7l12.1-22.7h42.8l6.1,22.7h20.1l-28.8-98.9h-15.2L197.8,389.7
		L197.8,389.7z M238,351.9l20.8-40.2l9.5,40.2H238L238,351.9z M476,290.8h-17.4l-8.7,62.1c-1.5,9.9-8.3,22.7-25.4,22.7
		c-17.1,0-20.5-12.9-18.9-22.7l8.7-62.1h-17.4l-9.5,62.5c-3.4,23.9,11.7,39,34.5,39s42.1-14.8,45.5-39L476,290.8L476,290.8z
		 M498.7,389.7h18.9l39.4-88.7h0.4l14.4,88.7h19.7L641.9,273h-21.2l-34.1,84.1h-0.4l-14-84.1h-20.5l-37.9,84.1h-0.4L503.2,273h-22.7
		L498.7,389.7L498.7,389.7z"/>
	<path fill="#E30613" d="M732.5,434.8c-1.1,1.1-1.9,1.9-3,2.7c-0.8,0.8-1.5,1.1-2.3,1.5c-0.8,0.4-1.1,0.4-1.5,0.4
		c-0.4,0-0.8,0-0.8-0.4c-0.4-0.4-0.4-0.8-0.4-1.5c0-0.8,0-1.5,0.4-2.3c0.4-1.1,0.4-1.9,1.1-3c0.4-1.1,1.1-2.3,1.5-3.8
		c0.8-1.1,1.5-2.7,2.3-4.2l-1.1-0.8c-0.4,0.4-1.1,1.1-1.5,1.5c-0.4,0.8-1.1,1.5-1.5,1.9c-0.4,0.8-1.1,1.5-1.5,2.3
		c-0.4,0.8-0.8,1.5-1.1,2.3s-0.8,1.5-0.8,2.3s-0.4,1.5-0.4,2.3c0,1.5,0.4,2.7,1.1,3.4c0.8,0.8,1.5,1.1,2.7,1.1c0.4,0,0.8,0,1.1-0.4
		c0.4,0,0.8-0.4,1.1-0.4c0.4-0.4,0.8-0.4,1.1-0.8s0.8-0.4,1.1-0.8c1.1-0.8,1.9-1.5,3-2.7c1.1-1.1,1.9-1.9,2.7-3
		c0.8-1.1,1.5-2.3,1.9-3.4s0.8-2.3,0.8-3.4c0-0.4,0-0.8,0-1.1c0-0.4-0.4-0.8-0.4-0.8c0-0.4-0.4-0.4-0.4-0.4s-0.4,0-0.8,0
		c-0.4,0-0.4,0-0.8,0.4c-0.4,0-0.4,0.4-0.8,0.8c-0.4,0.4-0.4,0.8-0.4,1.5c0,0.8-0.4,1.1-0.4,2.3c0,0.8,0,1.1,0.4,1.9
		c0,0.8,0.4,1.1,0.8,1.9C734.4,432.6,733.6,433.7,732.5,434.8L732.5,434.8z M735.5,429.2c0-0.4,0-0.8,0-1.1c0-0.8,0-1.1,0-1.5
		s0.4-0.8,0.4-1.1c0-0.4,0.4-0.4,0.4-0.4s0,0,0.4,0c0,0,0,0,0,0.4s0,0.4,0,1.1c0,0.8,0,1.5-0.4,2.3c0,0.8-0.4,1.5-0.8,2.3
		C735.9,429.9,735.9,429.5,735.5,429.2L735.5,429.2z M748,434.5c0.8-0.4,1.9-0.4,2.7-0.8s1.9-0.8,2.7-1.1c0.8-0.4,1.5-1.1,2.3-1.5
		c0.8-0.8,1.1-1.1,1.5-1.9s0.8-1.5,0.8-2.3c0-0.8,0-1.1-0.4-1.5c-0.4-0.4-0.4-0.8-0.8-1.1c-0.4-0.4-0.8-0.4-1.1-0.8
		c-0.4,0-0.8,0-1.1,0c-0.8,0-1.5,0-2.3,0.4s-1.5,0.8-2.7,1.1c-0.8,0.4-1.5,1.1-2.7,1.9c-0.8,0.8-1.5,1.5-2.3,2.7
		c-0.8,0.8-1.1,1.9-1.5,3c-0.4,1.1-0.8,2.3-0.8,3.4c0,1.1,0.4,1.9,0.8,2.7c0.4,0.8,0.8,1.1,1.5,1.9c0.8,0.4,1.5,0.8,1.9,0.8
		c0.8,0,1.5,0.4,2.3,0.4c0.8,0,1.9,0,3-0.4c1.1-0.4,1.9-0.8,3-1.5c1.1-0.8,2.3-1.5,3-3c1.1-1.1,2.3-2.7,3-4.5l-0.8-0.8
		c-1.9,3-3.8,5.3-5.7,6.8c-1.9,1.5-3.8,2.3-6.1,2.3c-0.8,0-1.1,0-1.5-0.4c-0.4-0.4-0.8-0.4-1.1-0.8s-0.4-0.8-0.8-1.5
		c0-0.4-0.4-1.1-0.4-1.5V436v-0.4C746.1,434.8,746.9,434.8,748,434.5L748,434.5z M747.3,430.3c0.8-1.1,1.5-2.3,2.3-3
		c0.8-0.8,1.9-1.5,2.7-1.9c0.8-0.4,1.5-0.8,2.3-0.8c0.4,0,0.8,0,0.8,0.4c0.4,0.4,0.4,0.8,0.4,1.1c0,0.4,0,0.8-0.4,1.5
		c-0.4,0.4-0.4,1.1-0.8,1.5c-0.4,0.8-0.8,1.1-1.5,1.9c-0.8,0.4-1.1,1.1-1.9,1.5c-0.8,0.4-1.5,0.8-2.7,1.1c-0.8,0.4-1.9,0.4-3,0.8
		C745.8,432.6,746.5,431.4,747.3,430.3L747.3,430.3z"/>
	<path fill="#E30613" d="M715.5,432.6c0.4-0.4,0.4-1.1,0.4-1.5c0-0.8,0.4-1.1,0.4-1.9c0-0.4,0-1.1,0-1.5c0-0.8,0-1.1,0-1.9
		c0-0.4-0.4-1.1-0.4-1.5c-0.4-0.4-0.4-0.8-0.8-0.8c-0.4-0.4-0.8-0.4-1.1-0.4s-0.8,0-1.5,0.4c-0.4,0.4-0.8,0.8-1.1,1.1
		c-0.4,0.4-0.4,1.1-0.8,1.5c0,0.8-0.4,1.1-0.4,1.9c0,0.8,0,1.5,0,1.9c0,0.8,0.4,1.1,0.4,1.9c0.4,0.8,0.4,1.1,0.8,1.5
		s0.8,0.8,1.1,1.1c-0.4,0.8-1.1,1.5-1.5,2.3c-0.8,0.8-1.1,1.1-1.9,1.9c-0.8,0.4-1.1,0.8-1.9,1.1c-0.8,0.4-1.5,0.4-1.9,0.4
		c-0.8,0-1.5-0.4-1.9-0.8s-0.8-1.1-0.8-2.3s0.4-2.3,0.8-3.4c0.4-1.1,1.1-2.3,1.9-3.4c0.8-1.1,1.5-1.9,2.3-3c0.8-0.8,1.5-1.5,2.7-2.3
		l-0.8-1.1c-0.8,0.4-1.5,0.8-2.3,1.1c-0.8,0.4-1.5,1.1-2.3,1.9c-0.8,0.8-1.1,1.5-1.9,1.9c-0.8,0.8-1.1,1.5-1.5,2.3
		c-0.4,0.8-0.8,1.5-1.1,2.3c-0.4,0.8-0.4,1.5-0.4,2.3c0,0.8,0,1.5,0.4,2.3c0.4,0.8,0.4,1.1,1.1,1.5c0.4,0.4,0.8,0.8,1.5,1.1
		s1.1,0.4,1.9,0.4s1.5,0,2.3-0.4c0.8-0.4,1.5-0.8,2.3-1.1c0.8-0.4,1.5-1.1,2.3-1.9c0.8-0.8,1.5-1.9,2.3-3c0.4,0,0.4,0,0.8,0
		c0.8,0,1.9-0.4,2.7-0.8c0.8-0.4,1.5-1.1,2.3-2.3l-0.8-0.8c-0.4,0.4-0.4,0.8-0.8,1.1c-0.4,0.4-0.8,0.4-0.8,0.8
		c-0.4,0-0.8,0.4-1.1,0.4s-0.8,0-1.1,0c0,0,0,0-0.4,0l0,0C714.7,433.3,715.1,432.9,715.5,432.6L715.5,432.6z M711.7,426.5
		c0-0.4,0.4-0.8,0.4-1.1s0.4-0.8,0.8-0.8c0.4-0.4,0.4-0.4,0.8-0.4c0.4,0,0.4,0,0.8,0.4c0.4,0,0.4,0.4,0.4,0.8c0,0.4,0.4,0.8,0.4,1.1
		c0,0.4,0,0.8,0,1.1s0,0.8,0,1.1c0,0.4,0,1.1-0.4,1.5c0,0.4-0.4,1.1-0.4,1.5c-0.4,0.8-0.4,1.1-0.8,1.5c-0.4-0.4-0.8-0.8-1.1-1.1
		c-0.4-0.4-0.4-0.8-0.8-1.5c0-0.4-0.4-1.1-0.4-1.5s0-1.1,0-1.5C711.3,427.6,711.3,427.3,711.7,426.5L711.7,426.5z"/>
	<path fill="#E30613" d="M315.3,406c-1.1,0.8-1.9,1.1-3,1.5c-1.1,0.4-2.3,0.8-3.4,1.1c-1.1,0.4-2.3,0.4-3.4,0.4s-2.3,0-3.8,0
		c-1.5,0-3.4,0-4.9-0.4c-1.9,0-3.4-0.4-5.3-0.4c-1.9-0.4-3.4-0.4-4.9-0.4c-1.5,0-3-0.4-4.5-0.4c-1.1,0-2.3,0-3.8,0.4
		c-1.1,0-2.3,0.4-3.4,0.8c-1.1,0.4-2.3,0.8-3,1.5c-1.1,0.8-1.9,1.5-2.7,2.3c-0.8,0.8-1.1,1.9-1.9,3c-0.4,1.1-0.8,2.3-0.8,3.8
		c0,1.5,0.4,2.7,0.8,3.8c0.4,1.1,1.1,1.9,1.9,2.7c0.8,0.8,1.9,1.1,3,1.5c1.1,0.4,2.3,0.4,3.4,0.4c1.5,0,2.7,0,4.2-0.4
		s2.7-0.8,3.8-1.5l-0.4-1.1c-1.1,0.4-2.3,0.8-3,1.1c-1.1,0.4-2.3,0.4-3,0.4c-1.1,0-2.3,0-3-0.4c-1.1-0.4-1.9-0.8-2.3-1.5
		c-0.8-0.8-1.1-1.5-1.5-2.3c-0.4-0.8-0.4-1.9-0.4-3c0-1.5,0.4-3,0.8-4.2c0.8-1.1,1.5-2.3,2.7-3.4c1.1-0.8,2.7-1.5,4.2-2.3
		c1.5-0.4,3.4-0.8,5.3-0.8c1.1,0,2.7,0,4.5,0.4c1.5,0,3.4,0.4,4.9,0.4c1.9,0,3.4,0.4,5.3,0.4s3.4,0.4,4.9,0.4c1.1,0,2.7,0,3.8,0
		c1.1,0,2.3-0.4,3.8-0.4c1.1-0.4,2.3-0.8,3.4-1.1c1.1-0.4,2.3-1.1,3-1.5L315.3,406L315.3,406z M298.6,411.7c-1.5,1.1-3,2.7-4.2,4.2
		c-1.1,1.5-2.3,3-3.4,4.9c-1.1,1.5-1.9,3.4-2.7,4.9c-0.8,1.9-1.5,3.4-2.7,4.9c-0.8,1.5-1.9,3-2.7,4.5c-0.8,1.5-1.9,2.7-3,3.8
		c-1.1,1.1-2.3,1.9-3.8,2.3c-1.5,0.8-3,0.8-4.5,0.8c-1.1,0-2.3,0-3.4-0.4c-1.1-0.4-2.3-0.8-3-1.5c-0.8-0.8-1.5-1.5-2.3-2.3
		c-0.4-1.1-0.8-2.3-0.8-3.4c0-0.4,0-0.8,0-1.1c0-0.4,0-0.8,0.4-1.1l-1.1-0.4c0,0.4-0.4,0.8-0.4,1.1c0,0.4,0,0.8,0,1.5
		c0,1.1,0.4,2.3,0.8,3.4c0.4,1.1,1.1,1.9,2.3,3c0.8,0.8,2.3,1.5,3.4,1.9c1.5,0.4,3,0.8,4.9,0.8s3.8-0.4,5.3-0.8
		c1.5-0.4,3-1.1,4.2-2.3s2.3-2.3,3.4-3.4c1.1-1.1,1.9-2.7,2.7-4.2c0.8-1.5,1.5-3,2.3-4.9c0.8-1.9,1.5-3.4,2.7-5.3
		c0.8-1.9,1.9-3.4,3-5.3c1.1-1.9,2.3-3.4,3.4-4.9L298.6,411.7L298.6,411.7z M314.1,431.4c-0.4,0.4-0.8,1.1-1.1,1.5
		c-0.4,0.8-0.8,1.1-1.1,1.9c-0.4,0.8-0.8,1.1-1.5,1.9c-0.4,0.8-0.8,1.1-1.5,1.5c-0.4,0.4-1.1,0.8-1.5,1.1c-0.4,0.4-1.1,0.4-1.5,0.4
		h-0.4h-0.4l-0.4-0.4c0,0,0-0.4,0-0.8s0-0.8,0-1.1c0-0.4,0.4-0.8,0.4-1.1c0-0.4,0.4-0.8,0.8-1.1c0.4-0.4,0.4-0.8,0.8-1.1
		c0.4-0.8,0.8-1.1,1.1-1.9c0.4-0.4,0.4-1.1,0.8-1.5c0-0.4,0.4-0.8,0.4-1.1c0-0.4,0-0.4,0-0.8v-0.4c0,0,0-0.4-0.4-0.4
		c0,0-0.4-0.4-0.8-0.8c-0.4-0.4-0.8-0.8-1.5-1.1l-0.4-0.4v-0.4c0-0.4,0-0.4,0-0.8s0-0.4,0-0.4l-0.8-0.4l-4.9,8l0.8,0.8
		c0.4-0.8,0.8-1.5,1.1-1.9c0.4-0.8,0.8-1.1,1.1-1.9c0.4-0.8,0.8-1.1,1.1-1.9c0,0.4,0.4,0.4,0.4,0.8c0.4,0,0.4,0.4,0.8,0.4
		s0.4,0.4,0.4,0.4l0.4,0.4c0,0.4,0,0.8-0.4,1.1c0,0.4-0.4,0.8-0.8,1.5c-0.4,0.8-0.8,1.5-1.1,2.3c-0.4,0.8-0.8,1.5-1.1,2.3
		c-0.4,0.8-0.4,1.5-0.4,2.3c0,0.4,0,1.1,0.4,1.5c0,0.4,0.4,0.8,0.8,1.1c0.4,0.4,0.8,0.4,1.1,0.8c0.4,0,0.8,0.4,1.1,0.4
		c0.8,0,1.5,0,2.3-0.4s1.5-0.8,1.9-1.5c0.8-0.4,1.1-1.1,1.5-1.9c0.4-0.8,1.1-1.5,1.5-1.9c0.4-0.8,0.8-1.1,1.1-1.9
		c0.4-0.8,0.8-1.1,0.8-1.5L314.1,431.4L314.1,431.4z M335.7,424.2c-0.4,0.4-0.8,0.8-1.1,1.1c-0.4,0.4-0.8,0.8-1.1,1.1
		c0-1.1-0.8-1.9-1.5-2.3c-0.8-0.4-1.9-0.8-3.4-0.8c-0.8,0-1.5,0-2.3,0.4s-1.5,0.4-2.7,1.1c-0.8,0.4-1.9,1.1-2.7,1.9s-1.9,1.9-2.7,3
		c-1.1,1.5-1.9,2.7-2.3,3.8c-0.4,1.1-0.8,2.3-0.8,3c0,0.8,0,1.5,0.4,1.9s0.4,1.1,0.8,1.5s0.8,0.8,1.5,0.8c0.4,0.4,1.1,0.4,1.5,0.4
		c0.4,0,1.1,0,1.9-0.4c0.8,0,1.1-0.4,1.9-0.8s1.5-0.8,1.9-1.5c0.8-0.8,1.5-1.5,2.3-2.3v0.4c0,0.4,0,0.4,0,0.4c0,0.8,0.4,1.5,0.8,2.3
		c0.4,0.4,1.1,0.8,1.9,0.8c0.8,0,1.1,0,1.9-0.4c0.8-0.4,1.1-0.8,1.9-1.1c0.4-0.4,1.1-0.8,1.5-1.5c0.4-0.4,1.1-1.1,1.5-1.9
		c0.4-0.8,0.8-1.1,1.1-1.9c0.4-0.8,0.8-1.1,0.8-1.5l-0.8-0.8c-0.4,0.4-0.4,0.8-0.8,1.1c-0.4,0.4-0.8,1.1-1.1,1.5
		c-0.4,0.4-0.8,1.1-1.1,1.5c-0.4,0.4-0.8,1.1-1.5,1.5c-0.4,0.4-0.8,0.8-1.5,1.1c-0.4,0.4-0.8,0.4-1.5,0.4c-0.4,0-0.8,0-0.8-0.4
		c-0.4,0-0.4-0.4-0.4-1.1c0-0.4,0-1.1,0.4-1.9c0.4-0.8,0.4-1.5,0.8-2.3c0.4-0.8,0.8-1.5,1.1-2.7c0.4-0.8,0.8-1.5,1.1-2.7
		c0.4-0.8,0.8-1.5,1.1-2.3c0.4-0.8,0.8-1.1,0.8-1.5L335.7,424.2L335.7,424.2z M327.8,436c-0.8,0.8-1.1,1.5-1.9,1.9
		c-0.8,0.8-1.5,1.1-2.3,1.5s-1.5,0.8-2.3,0.8s-1.5-0.4-1.9-0.8c-0.4-0.4-0.8-1.1-0.8-1.9c0-1.1,0.4-2.3,0.8-3.4
		c0.8-1.1,1.5-2.7,2.7-3.8c0.8-0.8,1.5-1.5,2.3-2.3c0.8-0.8,1.5-1.1,2.3-1.5c0.8-0.4,1.5-0.8,1.9-0.8c0.8,0,1.1-0.4,1.5-0.4
		c0.8,0,1.1,0,1.5,0.4s0.8,0.4,0.8,0.8s0.4,0.8,0.4,1.1s0,0.4,0,0.8c-0.4,0.4-0.4,0.8-0.8,1.1c-0.4,0.4-0.8,1.1-1.1,1.5
		c-0.4,0.4-0.8,1.1-0.8,1.5c-0.4,0.4-0.4,0.8-0.8,1.1C328.9,434.5,328.2,435.2,327.8,436L327.8,436z M352.8,434.8
		c-1.1,1.1-1.9,1.9-3,2.7c-0.8,0.8-1.5,1.1-2.3,1.5c-0.8,0.4-1.1,0.4-1.5,0.4s-0.8,0-0.8-0.4c-0.4-0.4-0.4-0.8-0.4-1.5
		c0-0.8,0-1.5,0.4-2.3c0.4-1.1,0.4-1.9,1.1-3c0.4-1.1,1.1-2.3,1.5-3.8c0.8-1.1,1.5-2.7,2.3-4.2l-1.1-0.8c-0.4,0.4-1.1,1.1-1.5,1.5
		c-0.4,0.8-1.1,1.5-1.5,1.9c-0.4,0.8-1.1,1.5-1.5,2.3s-0.8,1.5-1.1,2.3c-0.4,0.8-0.8,1.5-0.8,2.3s-0.4,1.5-0.4,2.3
		c0,1.5,0.4,2.7,1.1,3.4c0.8,0.8,1.5,1.1,2.7,1.1c0.4,0,0.8,0,1.1-0.4c0.4,0,0.8-0.4,1.1-0.4c0.4-0.4,0.8-0.4,1.1-0.8
		c0.4-0.4,0.8-0.4,1.1-0.8c1.1-0.8,1.9-1.5,3-2.7c1.1-1.1,1.9-1.9,2.7-3c0.8-1.1,1.5-2.3,1.9-3.4c0.4-1.1,0.8-2.3,0.8-3.4
		c0-0.4,0-0.8,0-1.1c0-0.4-0.4-0.8-0.4-0.8c0-0.4-0.4-0.4-0.4-0.4s-0.4,0-0.8,0s-0.4,0-0.8,0.4c-0.4,0-0.4,0.4-0.8,0.8
		c-0.4,0.4-0.4,0.8-0.4,1.5c0,0.8-0.4,1.1-0.4,2.3c0,0.8,0,1.1,0.4,1.9c0,0.8,0.4,1.1,0.8,1.9C354.7,432.6,353.9,433.7,352.8,434.8
		L352.8,434.8z M355.8,429.2c0-0.4,0-0.8,0-1.1c0-0.8,0-1.1,0-1.5s0.4-0.8,0.4-1.1c0-0.4,0.4-0.4,0.4-0.4l0,0c0,0,0,0,0.4,0.4
		c0,0.4,0,0.4,0,1.1c0,0.8,0,1.5-0.4,2.3c0,0.8-0.4,1.5-0.8,2.3C356.2,429.9,356.2,429.5,355.8,429.2L355.8,429.2z M368.3,434.5
		c0.8-0.4,1.9-0.4,2.7-0.8c0.8-0.4,1.9-0.8,2.7-1.1c0.8-0.4,1.5-1.1,2.3-1.5c0.8-0.8,1.1-1.1,1.5-1.9s0.8-1.5,0.8-2.3
		c0-0.8,0-1.1-0.4-1.5c-0.4-0.4-0.4-0.8-0.8-1.1c-0.4-0.4-0.8-0.4-1.1-0.8c-0.4,0-0.8,0-1.1,0c-0.8,0-1.5,0-2.3,0.4
		c-0.8,0.4-1.5,0.8-2.7,1.1c-0.8,0.4-1.5,1.1-2.7,1.9c-0.8,0.8-1.5,1.5-2.3,2.7c-0.8,0.8-1.1,1.9-1.5,3c-0.4,1.1-0.8,2.3-0.8,3.4
		c0,1.1,0.4,1.9,0.8,2.7c0.4,0.8,0.8,1.1,1.5,1.9c0.8,0.4,1.1,0.8,1.9,0.8s1.5,0.4,2.3,0.4s1.9,0,3-0.4s1.9-0.8,3-1.5
		c1.1-0.8,2.3-1.5,3-3c1.1-1.1,2.3-2.7,3-4.5l-0.8-0.8c-1.9,3-3.8,5.3-5.7,6.8c-1.9,1.5-3.8,2.3-6.1,2.3c-0.8,0-1.1,0-1.5-0.4
		c-0.4-0.4-0.8-0.4-1.1-0.8s-0.4-0.8-0.8-1.5c0-0.4-0.4-1.1-0.4-1.5V436v-0.4C366.4,434.8,367.2,434.8,368.3,434.5L368.3,434.5z
		 M367.6,430.3c0.8-1.1,1.5-2.3,2.3-3c0.8-0.8,1.9-1.5,2.7-1.9c0.8-0.4,1.5-0.8,2.3-0.8c0.4,0,0.8,0,0.8,0.4
		c0.4,0.4,0.4,0.8,0.4,1.1c0,0.4,0,0.8-0.4,1.5c-0.4,0.4-0.4,1.1-0.8,1.5c-0.4,0.8-0.8,1.1-1.5,1.9c-0.8,0.4-1.1,1.1-1.9,1.5
		c-0.8,0.4-1.5,0.8-2.7,1.1c-0.8,0.4-1.9,0.4-3,0.8C366.1,432.6,366.8,431.4,367.6,430.3L367.6,430.3z M399.4,406.8
		c-0.8,0.4-1.9,1.1-2.7,1.9c-0.8,0.8-1.9,1.9-3,3c-1.1,1.1-1.9,2.7-2.7,3.8c-0.8,1.5-1.9,3-2.7,4.5c-0.8,1.5-1.5,3-1.9,4.5
		c-0.8,1.5-1.1,3-1.5,4.5c-0.4,1.5-0.4,3-0.4,4.5c0,1.1,0,2.3,0.4,3c0.4,0.8,0.8,1.5,1.1,1.9s1.1,0.8,1.5,1.1
		c0.8,0.4,1.1,0.4,1.9,0.4c0.8,0,1.5-0.4,2.3-0.8c0.8-0.4,1.5-0.8,2.3-1.5c0.8-0.8,1.1-1.1,1.9-1.9c0.8-0.8,1.1-1.5,1.5-1.9
		c0.4-0.8,0.8-1.1,1.1-1.5c0.4-0.4,0.4-0.8,0.4-0.8l-0.8-0.8c-0.4,0.4-0.8,0.8-0.8,1.5c-0.4,0.4-0.8,1.1-1.1,1.5
		c-0.4,0.8-0.8,1.1-1.5,1.5c-0.4,0.4-1.1,1.1-1.5,1.5s-1.1,0.8-1.5,1.1c-0.4,0.4-1.1,0.4-1.5,0.4c-0.8,0-1.5-0.4-1.9-1.1
		c-0.4-0.8-0.8-1.5-0.8-3c0-0.4,0-1.1,0-1.5c0-0.4,0-1.1,0-1.5c0.4-0.4,0.4-0.8,0.8-0.8c0.4-0.4,0.4-0.4,0.8-0.8
		c0.4-0.4,0.8-0.8,1.1-1.1c0.4-0.4,0.8-1.1,1.5-1.5c0.8-0.8,1.1-1.5,2.3-2.3c0.8-1.1,1.9-2.3,3-3.4c0.4-0.8,1.1-1.5,1.9-2.3
		c0.8-0.8,1.1-1.5,1.5-2.7c0.4-0.8,1.1-1.9,1.5-2.7c0.4-0.8,0.8-1.5,1.1-2.7c0.4-0.8,0.8-1.5,0.8-2.3c0.4-0.8,0.4-1.1,0.4-1.9
		c0-0.8,0-1.1-0.4-1.5s-0.8-0.4-1.5-0.4C401.3,406,400.2,406.4,399.4,406.8L399.4,406.8z M389.2,424.6c0.8-1.9,1.5-3.4,2.3-5.3
		c0.8-1.5,1.9-3.4,2.7-4.5c1.1-1.5,1.9-2.7,3-3.8c0.8-1.1,1.9-1.9,2.7-2.7c0.8-0.8,1.5-1.1,1.9-1.1c0,0,0.4,0,0.4,0.4
		c0,0.4,0,0.4,0,0.4c0,0.8,0,1.5-0.4,2.7c-0.4,1.1-0.8,1.9-1.5,3c-0.8,1.1-1.5,2.3-2.3,3.8c-0.8,1.1-1.9,2.7-3,4.2
		c-1.1,1.5-2.3,2.7-3.4,4.2c-1.1,1.5-2.7,2.7-3.8,4.2C388,428.4,388.4,426.5,389.2,424.6L389.2,424.6z M433.1,426.1L433.1,426.1
		c-0.8,0-1.1,0-1.5,0.4c-0.4,0-0.4,0.4-0.8,0.4c0,0.4-0.4,0.4-0.4,0.4v0.4c0,0.4,0,0.8,0.4,0.8c0.4,0.4,0.4,0.4,0.8,0.4
		s0.8,0,1.1-0.4c0.4-0.4,0.4-0.4,0.8-0.8c0.4-0.4,0.4-0.8,0.4-1.1c0-0.4,0-0.8,0-1.1c0-0.4,0-0.4,0-0.8c0-0.4-0.4-0.8-0.8-0.8
		c-0.4-0.4-0.8-0.4-1.1-0.8c-0.4-0.4-1.1-0.4-1.9-0.4c-0.8,0-1.5,0-2.3,0.4c-0.8,0.4-1.5,0.8-2.7,1.1c-0.8,0.4-1.5,1.1-2.3,1.9
		c-0.8,0.8-1.5,1.5-1.9,2.7c-0.8,0.8-1.1,1.9-1.5,3c-0.4,1.1-0.4,2.3-0.4,3.4c0,1.1,0,1.9,0.4,2.7c0.4,0.8,0.8,1.5,1.1,1.9
		c0.4,0.4,1.1,0.8,1.9,1.1c0.8,0.4,1.5,0.4,2.3,0.4c1.1,0,1.9,0,3-0.4c1.1-0.4,1.9-0.8,3-1.5c1.1-0.8,1.9-1.5,3-2.7s1.9-2.3,2.7-3.8
		l-0.8-0.8c-0.8,0.8-1.1,1.9-1.9,2.7c-0.8,1.1-1.5,1.9-2.7,2.7c-0.8,0.8-1.9,1.5-3,1.9c-1.1,0.4-1.9,0.8-3,0.8c-0.4,0-1.1,0-1.5-0.4
		c-0.4,0-0.8-0.4-1.1-0.8s-0.4-0.8-0.8-1.5c0-0.4-0.4-1.1-0.4-1.9c0-1.1,0-1.9,0.4-3c0.4-1.1,0.8-1.9,1.1-2.7
		c0.4-0.8,0.8-1.5,1.5-2.3c0.8-0.8,1.1-1.5,1.9-1.9s1.5-1.1,1.9-1.1c0.8-0.4,1.5-0.4,2.3-0.4c0.8,0,1.5,0,1.9,0.4
		c0.4,0.4,0.8,0.8,0.8,1.1C433.1,425.4,433.1,425.7,433.1,426.1L433.1,426.1L433.1,426.1z M454,431.4c-0.4,0.4-0.8,1.1-1.1,1.5
		c-0.4,0.8-0.8,1.1-1.1,1.9c-0.4,0.8-0.8,1.1-1.5,1.9c-0.4,0.8-0.8,1.1-1.5,1.5c-0.4,0.4-1.1,0.8-1.5,1.1c-0.4,0.4-1.1,0.4-1.5,0.4
		h-0.4h-0.4l-0.4-0.4c0,0,0-0.4,0-0.8s0-0.8,0-1.1c0-0.4,0.4-0.8,0.4-1.1c0-0.4,0.4-0.8,0.8-1.1c0.4-0.4,0.4-0.8,0.8-1.1
		c0.4-0.8,0.8-1.1,1.1-1.9c0.4-0.4,0.4-1.1,0.8-1.5c0-0.4,0.4-0.8,0.4-1.1c0-0.4,0-0.4,0-0.8v-0.4c0,0,0-0.4-0.4-0.4
		c0,0-0.4-0.4-0.8-0.8c-0.4-0.4-0.8-0.8-1.5-1.1l-0.4-0.4v-0.4c0-0.4,0-0.4,0-0.8s0-0.4,0-0.4l-0.8-0.4l-4.9,8l0.8,0.8
		c0.4-0.8,0.8-1.5,1.1-1.9c0.4-0.8,0.8-1.1,1.1-1.9c0.4-0.8,0.8-1.1,1.1-1.9c0,0.4,0.4,0.4,0.4,0.8c0.4,0,0.4,0.4,0.8,0.4
		c0.4,0,0.4,0.4,0.4,0.4l0.4,0.4c0,0.4,0,0.8-0.4,1.1c0,0.4-0.4,0.8-0.8,1.5c-0.4,0.8-0.8,1.5-1.1,2.3c-0.4,0.8-0.8,1.5-1.1,2.3
		c-0.4,0.8-0.4,1.5-0.4,2.3c0,0.4,0,1.1,0.4,1.5c0,0.4,0.4,0.8,0.8,1.1c0.4,0.4,0.8,0.4,1.1,0.8c0.4,0,0.8,0.4,1.1,0.4
		c0.8,0,1.5,0,2.3-0.4c0.8-0.4,1.5-0.8,1.9-1.5c0.8-0.4,1.1-1.1,1.5-1.9c0.4-0.8,1.1-1.5,1.5-1.9c0.4-0.8,0.8-1.1,1.1-1.9
		c0.4-0.8,0.8-1.1,0.8-1.5L454,431.4L454,431.4z M462.3,434.5c0.8-0.4,1.9-0.4,2.7-0.8s1.9-0.8,2.7-1.1c0.8-0.4,1.5-1.1,2.3-1.5
		c0.8-0.8,1.1-1.1,1.5-1.9s0.8-1.5,0.8-2.3c0-0.8,0-1.1-0.4-1.5c-0.4-0.4-0.4-0.8-0.8-1.1c-0.4-0.4-0.8-0.4-1.1-0.8
		c-0.4,0-0.8,0-1.1,0c-0.8,0-1.5,0-2.3,0.4c-0.8,0.4-1.5,0.8-2.7,1.1c-0.8,0.4-1.5,1.1-2.7,1.9c-0.8,0.8-1.5,1.5-2.3,2.7
		c-0.8,0.8-1.1,1.9-1.5,3c-0.4,1.1-0.8,2.3-0.8,3.4c0,1.1,0.4,1.9,0.8,2.7c0.4,0.8,0.8,1.1,1.5,1.9c0.8,0.4,1.5,0.8,1.9,0.8
		c0.8,0,1.5,0.4,2.3,0.4c0.8,0,1.9,0,3-0.4c1.1-0.4,1.9-0.8,3-1.5c1.1-0.8,2.3-1.5,3-3c1.1-1.1,2.3-2.7,3-4.5l-0.8-0.8
		c-1.9,3-3.8,5.3-5.7,6.8c-1.9,1.5-3.8,2.3-6.1,2.3c-0.8,0-1.1,0-1.5-0.4c-0.4-0.4-0.8-0.4-1.1-0.8c-0.4-0.4-0.4-0.8-0.8-1.5
		c0-0.4-0.4-1.1-0.4-1.5V436v-0.4C460.4,434.8,461.2,434.8,462.3,434.5L462.3,434.5z M461.6,430.3c0.8-1.1,1.5-2.3,2.3-3
		c0.8-0.8,1.9-1.5,2.7-1.9c0.8-0.4,1.5-0.8,2.3-0.8c0.4,0,0.8,0,0.8,0.4c0.4,0.4,0.4,0.8,0.4,1.1c0,0.4,0,0.8-0.4,1.5
		c-0.4,0.4-0.4,1.1-0.8,1.5c-0.4,0.8-0.8,1.1-1.5,1.9c-0.8,0.4-1.1,1.1-1.9,1.5c-0.8,0.4-1.5,0.8-2.7,1.1c-0.8,0.4-1.9,0.4-3,0.8
		C460.4,432.6,460.8,431.4,461.6,430.3L461.6,430.3z M496.8,424.2c-0.4,0.4-0.8,0.8-1.1,1.1s-0.8,0.8-1.1,1.1c0-1.1-0.8-1.9-1.5-2.3
		s-1.9-0.8-3.4-0.8c-0.8,0-1.5,0-2.3,0.4c-0.8,0.4-1.5,0.4-2.7,1.1c-0.8,0.4-1.9,1.1-2.7,1.9c-0.8,0.8-1.9,1.9-2.7,3
		c-1.1,1.5-1.9,2.7-2.3,3.8c-0.4,1.1-0.8,2.3-0.8,3c0,0.8,0,1.5,0.4,1.9c0.4,0.4,0.4,1.1,0.8,1.5s0.8,0.8,1.5,0.8
		c0.4,0.4,1.1,0.4,1.5,0.4s1.1,0,1.9-0.4c0.8,0,1.1-0.4,1.9-0.8c0.8-0.4,1.5-0.8,1.9-1.5c0.8-0.8,1.5-1.5,2.3-2.3v0.4
		c0,0.4,0,0.4,0,0.4c0,0.8,0.4,1.5,0.8,2.3c0.4,0.4,1.1,0.8,1.9,0.8c0.8,0,1.1,0,1.9-0.4s1.1-0.8,1.9-1.1c0.4-0.4,1.1-0.8,1.5-1.5
		c0.4-0.4,1.1-1.1,1.5-1.9c0.4-0.8,0.8-1.1,1.1-1.9c0.4-0.8,0.8-1.1,0.8-1.5l-0.8-0.8c-0.4,0.4-0.4,0.8-0.8,1.1
		c-0.4,0.4-0.8,1.1-1.1,1.5s-0.8,1.1-1.1,1.5c-0.4,0.4-0.8,1.1-1.5,1.5c-0.4,0.4-0.8,0.8-1.5,1.1c-0.4,0.4-0.8,0.4-1.5,0.4
		c-0.4,0-0.8,0-0.8-0.4c-0.4,0-0.4-0.4-0.4-1.1c0-0.4,0-1.1,0.4-1.9c0.4-0.8,0.4-1.5,0.8-2.3c0.4-0.8,0.8-1.5,1.1-2.7
		c0.4-0.8,0.8-1.5,1.1-2.7c0.4-0.8,0.8-1.5,1.1-2.3c0.4-0.8,0.8-1.1,0.8-1.5L496.8,424.2L496.8,424.2z M488.5,436
		c-0.8,0.8-1.1,1.5-1.9,1.9c-0.8,0.8-1.5,1.1-2.3,1.5c-0.8,0.4-1.5,0.8-2.3,0.8s-1.5-0.4-1.9-0.8s-0.8-1.1-0.8-1.9
		c0-1.1,0.4-2.3,0.8-3.4c0.8-1.1,1.5-2.7,2.7-3.8c0.8-0.8,1.5-1.5,2.3-2.3c0.8-0.8,1.5-1.1,2.3-1.5s1.5-0.8,1.9-0.8
		c0.8,0,1.1-0.4,1.5-0.4c0.8,0,1.1,0,1.5,0.4c0.4,0.4,0.8,0.4,0.8,0.8s0.4,0.8,0.4,1.1s0,0.4,0,0.8c-0.4,0.4-0.4,0.8-0.8,1.1
		c-0.4,0.4-0.8,1.1-1.1,1.5s-0.8,1.1-0.8,1.5c-0.4,0.4-0.4,0.8-0.8,1.1C489.6,434.5,489.2,435.2,488.5,436L488.5,436z M504.8,420.8
		l-0.4,1.1h3.8c-0.8,1.5-1.5,3.4-2.3,4.9c-0.8,1.5-1.1,2.7-1.5,4.2c-0.4,1.1-0.8,2.3-0.8,3c0,0.8-0.4,1.5-0.4,1.9
		c0,0.8,0,1.5,0.4,1.9c0,0.8,0.4,1.1,0.8,1.5c0.4,0.4,0.8,0.8,1.5,1.1c0.4,0.4,1.1,0.4,1.9,0.4c1.1,0,2.3-0.4,3-0.8
		c1.1-0.8,1.9-1.1,2.7-2.3c0.8-0.8,1.5-1.9,2.3-2.7c0.8-1.1,1.1-1.9,1.9-3l-0.8-0.8c0,0-0.4,0.4-0.4,0.8c-0.4,0.4-0.8,1.1-1.1,1.5
		c-0.4,0.8-0.8,1.1-1.5,1.9c-0.4,0.8-1.1,1.1-1.9,1.9c-0.8,0.4-1.1,1.1-1.9,1.5c-0.8,0.4-1.1,0.4-1.9,0.4s-1.1-0.4-1.9-0.8
		c-0.4-0.4-0.8-1.1-0.8-2.3c0-0.8,0-1.9,0.4-3c0.4-1.1,0.8-2.3,1.1-3.4c0.4-1.1,1.1-2.7,1.5-4.2c0.8-1.5,1.1-2.7,1.9-4.2h8l0.4-1.1
		h-7.6c0.8-1.5,1.5-2.7,2.3-3.8c0.8-1.1,1.5-2.3,1.9-3.4l-1.1-0.8c-0.8,0.4-1.1,1.1-1.9,1.9c-0.8,0.8-1.1,1.5-1.9,2.3
		c-0.4,0.8-1.1,1.5-1.5,2.3c-0.4,0.8-0.8,1.1-0.8,1.5h-3.4V420.8z M525.2,434.5c0.8-0.4,1.9-0.4,2.7-0.8s1.9-0.8,2.7-1.1
		c0.8-0.4,1.5-1.1,2.3-1.5c0.8-0.8,1.1-1.1,1.5-1.9c0.4-0.8,0.8-1.5,0.8-2.3c0-0.8,0-1.1-0.4-1.5c-0.4-0.4-0.4-0.8-0.8-1.1
		c-0.4-0.4-0.8-0.4-1.1-0.8c-0.4,0-0.8,0-1.1,0c-0.8,0-1.5,0-2.3,0.4c-0.8,0.4-1.5,0.8-2.7,1.1c-0.8,0.4-1.5,1.1-2.7,1.9
		c-0.8,0.8-1.5,1.5-2.3,2.7c-0.8,0.8-1.1,1.9-1.5,3c-0.4,1.1-0.8,2.3-0.8,3.4c0,1.1,0.4,1.9,0.8,2.7c0.4,0.8,0.8,1.1,1.5,1.9
		c0.8,0.4,1.5,0.8,1.9,0.8c0.8,0,1.5,0.4,2.3,0.4c0.8,0,1.9,0,3-0.4s1.9-0.8,3-1.5c1.1-0.8,2.3-1.5,3-3c1.1-1.1,2.3-2.7,3-4.5
		l-0.8-0.8c-1.9,3-3.8,5.3-5.7,6.8c-1.9,1.5-3.8,2.3-6.1,2.3c-0.8,0-1.1,0-1.5-0.4c-0.4-0.4-0.8-0.4-1.1-0.8s-0.4-0.8-0.8-1.5
		c0-0.4-0.4-1.1-0.4-1.5V436v-0.4C523.3,434.8,524.1,434.8,525.2,434.5L525.2,434.5z M524.5,430.3c0.8-1.1,1.5-2.3,2.3-3
		c0.8-0.8,1.9-1.5,2.7-1.9c0.8-0.4,1.5-0.8,2.3-0.8c0.4,0,0.8,0,0.8,0.4c0.4,0.4,0.4,0.8,0.4,1.1c0,0.4,0,0.8-0.4,1.5
		c-0.4,0.4-0.4,1.1-0.8,1.5c-0.4,0.8-0.8,1.1-1.5,1.9c-0.8,0.4-1.1,1.1-1.9,1.5c-0.8,0.4-1.5,0.8-2.7,1.1c-0.8,0.4-1.9,0.4-3,0.8
		C522.9,432.6,523.7,431.4,524.5,430.3L524.5,430.3z M566.9,408.7c-0.8,0.8-1.5,1.5-2.3,2.7c-0.8,0.8-1.5,1.9-2.3,3
		c-0.8,1.1-1.5,1.9-1.9,3c-0.8,1.1-1.1,1.9-1.5,2.7c-0.4,0.8-0.8,1.5-1.1,2.3c-0.4,0.8-0.8,1.1-0.8,1.5c-0.4-0.4-0.8-0.4-1.1-0.8
		c-0.8-0.4-1.5-0.4-2.3-0.4c-0.8,0-1.5,0-2.3,0.4c-0.8,0.4-1.9,0.8-2.7,1.1c-0.8,0.4-1.5,1.1-2.7,1.9c-0.8,0.8-1.5,1.5-2.3,2.3
		c-0.8,0.8-1.1,1.9-1.5,3c-0.4,1.1-0.4,2.3-0.4,3.4c0,1.1,0,1.9,0.4,2.7c0.4,0.8,0.8,1.1,1.5,1.5c0.4,0.4,1.1,0.8,1.9,0.8
		c0.8,0,1.1,0.4,1.5,0.4c1.1,0,1.9-0.4,3-1.1c1.1-0.8,2.3-1.5,3.4-3c0,0.8,0.4,1.1,0.4,1.5c0.4,0.4,0.4,0.8,0.8,1.1
		c0.4,0.4,0.8,0.4,1.1,0.4s0.8,0,1.1,0c0.8,0,1.5,0,1.9-0.4c0.8-0.4,1.1-0.8,1.5-1.1c0.4-0.4,1.1-1.1,1.5-1.5s0.8-1.1,1.1-1.5
		s0.8-1.1,0.8-1.5c0.4-0.4,0.4-0.8,0.8-1.1l-0.8-0.8c-0.4,0.4-0.4,0.8-0.8,1.1c-0.4,0.4-0.4,0.8-0.8,1.5c-0.4,0.4-0.8,1.1-1.1,1.5
		c-0.4,0.4-0.8,0.8-1.1,1.5c-0.4,0.4-0.8,0.8-1.1,1.1s-0.8,0.4-1.5,0.4c-0.4,0-0.8,0-1.1-0.4c-0.4-0.4-0.4-1.1-0.4-1.9
		c0-0.4,0-1.1,0-1.9s0.4-1.5,0.4-2.3c0.4-0.8,0.8-1.9,1.1-3s1.1-2.7,1.9-4.2c0.4-1.1,0.8-1.9,1.5-3c0.8-1.1,1.1-2.3,1.9-3
		c0.8-1.1,1.1-1.9,1.9-3c0.8-1.1,1.1-1.9,1.5-2.7c0.4-0.8,1.1-1.5,1.5-1.9c0.4-0.8,0.8-1.1,0.8-1.1L566.9,408.7L566.9,408.7z
		 M551,436.7c-0.8,0.4-1.1,1.1-1.9,1.5c-0.4,0.4-1.1,0.8-1.5,0.8c-0.4,0-0.8,0.4-1.1,0.4c-0.8,0-1.5-0.4-1.9-1.1s-0.8-1.5-0.8-2.7
		c0-0.8,0-1.9,0.4-2.7c0.4-0.8,0.8-1.9,1.1-2.7c0.4-0.8,1.1-1.5,1.5-2.3c0.8-0.8,1.1-1.5,1.9-1.9s1.5-1.1,2.3-1.1
		c0.8-0.4,1.5-0.4,2.3-0.4c0.4,0,1.1,0,1.5,0.4c0.4,0,0.8,0.4,0.8,0.8c-1.1,1.9-1.5,3.8-2.3,5.3c-0.4,1.5-0.8,3-0.8,4.2
		C552.5,435.2,551.7,436,551,436.7L551,436.7z M590.8,423.9c-0.8,0.8-1.5,1.5-2.3,2.7c-0.8,1.1-1.5,1.9-1.9,3
		c-0.8,1.1-1.1,2.3-1.5,3.4c-0.4,1.1-0.4,2.3-0.4,3.4c0,0.8,0,1.1,0.4,1.5c0,0.4,0.4,1.1,0.8,1.5c0.4,0.4,0.8,0.8,1.1,0.8
		c0.4,0.4,1.1,0.4,1.5,0.4c0.4,0,1.1,0,1.5-0.4c0.4-0.4,1.1-0.8,1.5-1.1c0.4-0.4,1.1-1.1,1.5-1.5c0.4-0.8,0.8-1.1,1.5-1.9
		c0,0.4,0,0.4,0,0.8s0,0.4,0,0.8c0,0.8,0,1.1,0.4,1.5c0,0.4,0.4,0.8,0.8,1.1c0.4,0.4,0.4,0.4,0.8,0.8c0.4,0,0.8,0.4,1.1,0.4
		c0.8,0,1.9-0.4,2.7-0.8c0.8-0.4,1.5-1.1,2.3-1.9c0.8-0.8,1.5-1.5,2.3-2.7c0.8-0.8,1.1-1.9,1.9-3c0.4,0.4,0.8,0.8,1.1,1.1
		c0.4,0.4,1.1,0.4,1.5,0.4l0.4-1.1c-0.4,0-1.1,0-1.5-0.4c-0.4-0.4-0.8-0.8-1.1-1.1c0.4-1.1,0.8-1.9,1.1-3c0.4-1.1,0.4-1.9,0.4-2.7
		c0-1.1,0-1.9-0.4-2.3c-0.4-0.4-0.8-0.8-1.1-0.8s-0.4,0-0.8,0.4c-0.4,0-0.4,0.4-0.8,0.8c-0.4,0.4-0.4,0.8-0.4,1.5
		c0,0.4-0.4,1.1-0.4,1.9c0,1.5,0.4,2.7,0.8,3.8c-0.4,0.8-0.8,1.9-1.5,2.7s-1.1,1.9-1.9,2.7c-0.8,0.8-1.5,1.5-1.9,1.9
		c-0.8,0.4-1.1,0.8-1.9,0.8H598l-0.4-0.4c0,0,0-0.4,0-0.8c0-0.4,0-0.4,0-0.8c0-0.8,0-1.9,0.4-3c0.4-1.1,0.4-2.3,0.8-3.4
		c0.4-1.1,0.8-2.3,1.1-3.4c0.4-1.1,0.8-1.9,1.1-2.7l-1.1-0.8c-0.4,0.8-1.1,1.9-1.5,3c-0.4,1.1-1.1,2.3-1.5,3.4l0,0
		c-0.4,1.1-1.1,2.3-1.5,3.4c-0.8,1.1-1.1,1.9-1.9,3c-0.8,0.8-1.5,1.5-1.9,1.9c-0.8,0.4-1.1,0.8-1.9,0.8s-1.1-0.8-1.1-2.3
		c0-0.8,0-1.5,0.4-2.3c0-0.8,0.4-1.9,0.8-3c0.4-1.1,0.8-2.3,1.5-3.4c0.8-1.1,1.5-2.7,2.3-3.8L590.8,423.9L590.8,423.9z M605.2,429.2
		c0-0.4,0-0.8,0-1.5s0-1.1,0-1.5s0.4-0.8,0.4-1.1s0.4-0.4,0.4-0.4l0,0c0,0,0,0,0,0.4c0,0.4,0,0.8,0,1.1c0,0.8,0,1.5-0.4,2.3
		c0,0.8-0.4,1.5-0.8,2.3C605.2,429.9,605.2,429.5,605.2,429.2L605.2,429.2z M623,418.5c-0.4-0.4-0.4-0.4-0.8-0.4
		c-0.4,0-0.8,0-0.8,0.4c-0.4,0.4-0.4,0.4-0.8,0.8c0,0.4-0.4,0.8-0.4,1.1c0,0.4,0,0.8,0,0.8c0,0.4,0,0.4,0.4,0.8
		c0,0.4,0.4,0.4,0.8,0.4c0.4,0,0.8,0,0.8-0.4c0.4,0,0.4-0.4,0.8-0.8c0.4-0.4,0.4-0.8,0.8-0.8c0-0.4,0.4-0.8,0.4-1.1
		C623.4,419.3,623.4,418.9,623,418.5L623,418.5z M618.4,424.2c-0.8,0.8-1.5,1.9-2.3,2.7c-0.8,1.1-1.5,2.3-2.3,3.4
		c-0.8,1.1-1.5,2.3-1.9,3.4c-0.4,1.1-0.8,2.3-0.8,3.4c0,0.8,0.4,1.5,0.8,2.3c0.4,0.4,1.1,0.8,2.3,0.8c1.1,0,1.9-0.4,2.7-0.8
		s1.5-1.1,2.3-1.9c0.8-0.8,1.5-1.5,1.9-2.7c0.8-0.8,1.1-1.9,1.5-2.7l-0.8-0.8c-0.8,0.8-1.1,1.9-1.9,2.7s-1.1,1.5-1.9,2.3
		c-0.8,0.8-1.1,1.1-1.9,1.5c-0.8,0.4-1.1,0.8-1.9,0.8c-0.4,0-0.8,0-0.8-0.4c0,0-0.4-0.4-0.4-0.8s0-1.1,0.4-1.9
		c0.4-0.8,0.4-1.5,0.8-2.3c0.4-0.8,0.8-1.5,1.1-2.7c0.4-0.8,0.8-1.5,1.1-2.7c0.4-0.8,0.8-1.5,1.1-2.3
		C618.1,425,618.4,424.6,618.4,424.2L618.4,424.2L618.4,424.2z M626,420.8l-0.4,1.1h3.8c-0.8,1.5-1.5,3.4-2.3,4.9
		c-0.8,1.5-1.1,2.7-1.5,4.2c-0.4,1.1-0.8,2.3-0.8,3c0,0.8-0.4,1.5-0.4,1.9c0,0.8,0,1.5,0.4,1.9c0,0.8,0.4,1.1,0.8,1.5
		c0.4,0.4,0.8,0.8,1.5,1.1c0.4,0.4,1.1,0.4,1.9,0.4c1.1,0,2.3-0.4,3-0.8c1.1-0.8,1.9-1.1,2.7-2.3c0.8-0.8,1.5-1.9,2.3-2.7
		c0.8-1.1,1.1-1.9,1.9-3l-0.8-0.8c0,0-0.4,0.4-0.4,0.8c-0.4,0.4-0.8,1.1-1.1,1.5c-0.4,0.8-0.8,1.1-1.5,1.9c-0.4,0.8-1.1,1.1-1.9,1.9
		c-0.8,0.4-1.1,1.1-1.9,1.5s-1.1,0.4-1.9,0.4c-0.8,0-1.1-0.4-1.9-0.8c-0.4-0.4-0.8-1.1-0.8-2.3c0-0.8,0-1.9,0.4-3
		c0.4-1.1,0.8-2.3,1.1-3.4c0.4-1.1,1.1-2.7,1.5-4.2c0.8-1.5,1.1-2.7,1.9-4.2h8l0.4-1.1h-7.6c0.8-1.5,1.5-2.7,2.3-3.8
		c0.8-1.1,1.5-2.3,1.9-3.4l-1.1-0.8c-0.8,0.4-1.1,1.1-1.9,1.9c-0.8,0.8-1.1,1.5-1.9,2.3c-0.4,0.8-1.1,1.5-1.5,2.3
		c-0.4,0.8-0.8,1.1-0.8,1.5H626V420.8z M648.4,425c0.8-0.8,1.9-1.9,3-2.7c1.1-1.1,1.9-1.9,3-3c1.1-1.1,1.9-2.3,2.7-3.4
		s1.5-2.3,2.3-3c0.8-1.1,1.1-1.9,1.5-3c0.4-0.8,0.8-1.9,0.8-2.7c0-0.8-0.4-1.1-0.8-1.5c-0.4-0.4-0.8-0.8-1.5-0.8
		c-0.8,0-1.1,0-1.9,0.4s-1.1,0.8-1.9,1.1c-0.4,0.4-1.1,1.1-1.5,1.9c-0.4,0.8-1.1,1.5-1.5,2.3c-0.4,0.8-0.8,1.5-1.1,2.3
		c-0.4,0.8-0.8,1.5-1.1,2.3c-1.9,4.2-3.8,8.3-5.7,12.5c-1.9,4.2-3.8,8.7-5.7,12.9l2.3,0.8l3.4-6.8c0.8-1.1,1.9-2.3,2.7-3.4
		c1.1-1.1,1.9-2.3,3-3c1.1-0.8,1.9-1.5,3-2.3s1.9-0.8,2.7-0.8s0.8,0.4,0.8,1.1c0,0.4,0,0.8-0.4,1.5c-0.4,0.4-0.8,1.1-1.1,1.9
		c-0.4,0.8-0.8,1.5-1.1,1.9c-0.4,0.8-0.8,1.5-1.1,2.3s-0.8,1.5-1.1,2.3c-0.4,0.8-0.4,1.5-0.4,2.3c0,0.8,0,1.1,0.4,1.5
		s0.4,0.8,0.8,1.1c0.4,0.4,0.8,0.4,1.1,0.4s0.8,0,1.1,0c0.8,0,1.1,0,1.9-0.4s1.1-0.8,1.9-1.5c0.4-0.8,1.1-1.1,1.5-1.9
		c0.4-0.8,0.8-1.5,1.5-1.9c0.4-0.8,0.8-1.1,1.1-1.9c0.4-0.4,0.4-0.8,0.8-1.1l-0.8-0.8c-0.4,0.8-1.1,1.9-1.9,3
		c-0.8,1.1-1.1,1.9-1.9,2.7c-0.8,0.8-1.1,1.5-1.9,1.9s-1.1,0.8-1.5,0.8c-0.4,0-0.8,0-0.8-0.4s-0.4-0.8-0.4-1.1c0-0.8,0-1.1,0.4-1.9
		s0.4-1.5,0.8-1.9c0.4-0.8,0.8-1.5,1.1-2.3c0.4-0.8,0.8-1.5,1.1-2.3c0.4-0.8,0.8-1.5,0.8-1.9c0.4-0.8,0.4-1.1,0.4-1.9
		c0-0.4,0-0.8,0-1.1c0-0.4-0.4-0.8-0.4-0.8c-0.4-0.4-0.4-0.4-0.8-0.8c-0.4,0-0.8-0.4-1.5-0.4s-1.5,0.4-2.7,0.8
		c-0.8,0.4-1.9,0.8-2.7,1.5c-0.8,0.8-1.9,1.5-2.7,2.3c-0.8,0.8-1.9,1.9-2.7,3L648.4,425L648.4,425z M659.7,406.4
		c0,0,0.4,0.4,0.4,0.8c0,0.4-0.4,1.1-0.8,2.3c-0.4,1.1-1.1,2.3-1.9,3.4c-0.8,1.1-1.9,2.7-3.4,4.2c-1.1,1.5-2.7,3-4.5,4.9
		c1.1-3,2.3-5.3,3.4-7.2c0.8-1.9,1.5-3.8,2.3-4.9c0.8-1.1,1.1-2.3,1.9-2.7c0.8-0.4,1.1-0.8,1.9-0.8C659.4,406,659.7,406,659.7,406.4
		L659.7,406.4z M698.8,406.8c-0.8,0.4-1.9,1.1-2.7,1.9c-0.8,0.8-1.9,1.9-3,3c-1.1,1.1-1.9,2.7-2.7,3.8c-0.8,1.5-1.9,3-2.7,4.5
		s-1.5,3-1.9,4.5c-0.8,1.5-1.1,3-1.5,4.5c-0.4,1.5-0.4,3-0.4,4.5c0,1.1,0,2.3,0.4,3c0.4,0.8,0.8,1.5,1.1,1.9
		c0.4,0.4,1.1,0.8,1.5,1.1c0.8,0.4,1.1,0.4,1.9,0.4s1.5-0.4,2.3-0.8c0.8-0.4,1.5-0.8,2.3-1.5c0.8-0.8,1.1-1.1,1.9-1.9
		c0.8-0.8,1.1-1.5,1.5-1.9c0.4-0.8,0.8-1.1,1.1-1.5c0.4-0.4,0.4-0.8,0.4-0.8l-0.8-0.8c-0.4,0.4-0.8,0.8-0.8,1.5
		c-0.4,0.4-0.8,1.1-1.1,1.5c-0.4,0.8-0.8,1.1-1.5,1.5c-0.4,0.4-1.1,1.1-1.5,1.5c-0.4,0.4-1.1,0.8-1.5,1.1c-0.4,0.4-1.1,0.4-1.5,0.4
		c-0.8,0-1.5-0.4-1.9-1.1c-0.4-0.8-0.8-1.5-0.8-3c0-0.4,0-1.1,0-1.5c0-0.4,0-1.1,0-1.5c0.4-0.4,0.4-0.8,0.8-0.8
		c0.4-0.4,0.4-0.4,0.8-0.8c0.4-0.4,0.8-0.8,1.1-1.1c0.4-0.4,0.8-1.1,1.5-1.5c0.8-0.8,1.1-1.5,2.3-2.3c0.8-1.1,1.9-2.3,3-3.4
		c0.4-0.8,1.1-1.5,1.9-2.3c0.8-0.8,1.1-1.5,1.5-2.7c0.4-0.8,1.1-1.9,1.5-2.7s0.8-1.5,1.1-2.7c0.4-0.8,0.8-1.5,0.8-2.3
		c0.4-0.8,0.4-1.1,0.4-1.9c0-0.8,0-1.1-0.4-1.5s-0.8-0.4-1.5-0.4C700.7,406,699.9,406.4,698.8,406.8L698.8,406.8z M688.5,424.6
		c0.8-1.9,1.5-3.4,2.3-5.3c0.8-1.5,1.9-3.4,2.7-4.5c1.1-1.5,1.9-2.7,3-3.8c0.8-1.1,1.9-1.9,2.7-2.7s1.5-1.1,1.9-1.1
		c0,0,0.4,0,0.4,0.4c0,0.4,0,0.4,0,0.4c0,0.8,0,1.5-0.4,2.7s-0.8,1.9-1.5,3s-1.5,2.3-2.3,3.8c-0.8,1.1-1.9,2.7-3,4.2
		c-1.1,1.5-2.3,2.7-3.4,4.2c-1.1,1.5-2.7,2.7-3.8,4.2C687.4,428.4,688.2,426.5,688.5,424.6L688.5,424.6z"/>
	<path fill="none" stroke="#FBD5C5" stroke-width="1.3175" d="M379.7,353.4c4.5-25.8-9.9-50.8-32.2-55.7
		c-22.4-4.9-44.3,12.1-48.9,38.3c-4.5,25.8,9.9,50.8,32.2,55.7C353.2,396.2,375.2,379.1,379.7,353.4L379.7,353.4z"/>
	<path fill="none" stroke="#EC6446" stroke-width="1.3175" d="M381.2,338.2c4.9-28.4-9.1-55.3-31.5-59.9
		c-22.4-4.9-44.7,14.4-49.6,42.8c-4.9,28.4,9.1,55.3,31.5,59.9S375.9,366.6,381.2,338.2L381.2,338.2z"/>
	<path fill="none" stroke="#F3997B" stroke-width="1.3175" d="M377.1,323.4c5.7-32.2-5.3-61.8-25-65.9
		c-19.7-4.2-40.2,18.6-45.9,50.8s5.3,61.8,25,65.9C350.5,378.4,371.4,355.6,377.1,323.4L377.1,323.4z"/>
	<polygon fill="#F3997B" points="646.9,265.1 642.7,253.3 630.2,253.3 640.4,245.7 636.6,233.6 646.9,241.2 656.7,233.6 
		652.9,245.7 663.2,253.3 650.3,253.3 	"/>
	<polygon fill="#F3997B" points="631.7,234.4 626.8,231 621.9,235.1 623.4,229.1 618.1,225.7 624.1,225.3 625.6,219.2 627.9,224.9 
		634.4,224.5 629.4,228.7 	"/>
	<polygon fill="#F3997B" points="649.5,227.6 646.5,217.7 636.3,217.7 644.6,211.6 641.6,201.8 649.9,207.9 658.2,202.2 
		654.8,211.6 662.8,218.1 652.5,218.1 	"/>
</g>
</svg>
