<?xml version="1.0" encoding="utf-8"?>
<!-- Generator: Adobe Illustrator 18.1.1, SVG Export Plug-In . SVG Version: 6.00 Build 0)  -->
<svg version="1.1" id="Interface__x26__Layout" xmlns="http://www.w3.org/2000/svg" xmlns:xlink="http://www.w3.org/1999/xlink"
	 x="0px" y="0px" viewBox="0 0 40 36" enable-background="new 0 0 40 36" xml:space="preserve">
<g id="interface_-_sidebar_hamburger">
	<g>
		<path fill-rule="evenodd" clip-rule="evenodd" fill="#FFFFFF" d="M2,4h36c1.1,0,2-0.9,2-2c0-1.1-0.9-2-2-2H2C0.9,0,0,0.9,0,2
			C0,3.1,0.9,4,2,4z M38,16H2c-1.1,0-2,0.9-2,2c0,1.1,0.9,2,2,2h36c1.1,0,2-0.9,2-2C40,16.9,39.1,16,38,16z M38,32H2
			c-1.1,0-2,0.9-2,2c0,1.1,0.9,2,2,2h36c1.1,0,2-0.9,2-2C40,32.9,39.1,32,38,32z"/>
	</g>
</g>
</svg>
